<svg width="24" height="24" viewBox="0 0 24 24" fill="none" xmlns="http://www.w3.org/2000/svg">
<g clip-path="url(#clip0_675_68845)">
<path d="M6 19C7.65685 19 9 17.6569 9 16C9 14.3431 7.65685 13 6 13C4.34315 13 3 14.3431 3 16C3 17.6569 4.34315 19 6 19Z" stroke="currentColor" stroke-width="1.5" stroke-linecap="round" stroke-linejoin="round"/>
<path d="M16 21C17.1046 21 18 20.1046 18 19C18 17.8954 17.1046 17 16 17C14.8954 17 14 17.8954 14 19C14 20.1046 14.8954 21 16 21Z" stroke="currentColor" stroke-width="1.5" stroke-linecap="round" stroke-linejoin="round"/>
<path d="M14.5 12C16.9853 12 19 9.98528 19 7.5C19 5.01472 16.9853 3 14.5 3C12.0147 3 10 5.01472 10 7.5C10 9.98528 12.0147 12 14.5 12Z" stroke="currentColor" stroke-width="1.5" stroke-linecap="round" stroke-linejoin="round"/>
</g>
<defs>
<clipPath id="clip0_675_68845">
<rect width="24" height="24" fill="white"/>
</clipPath>
</defs>
</svg>
