<svg width="24" height="25" viewBox="0 0 24 25" fill="none" xmlns="http://www.w3.org/2000/svg">
<g clip-path="url(#clip0_718_85208)">
<path d="M17 11.897H7C5.89543 11.897 5 12.7924 5 13.897V19.897C5 21.0015 5.89543 21.897 7 21.897H17C18.1046 21.897 19 21.0015 19 19.897V13.897C19 12.7924 18.1046 11.897 17 11.897Z" stroke="currentColor" stroke-width="1.5" stroke-linecap="round" stroke-linejoin="round"/>
<path d="M12 17.897C12.5523 17.897 13 17.4493 13 16.897C13 16.3447 12.5523 15.897 12 15.897C11.4477 15.897 11 16.3447 11 16.897C11 17.4493 11.4477 17.897 12 17.897Z" stroke="currentColor" stroke-width="1.5" stroke-linecap="round" stroke-linejoin="round"/>
<path d="M8 11.897V7.89697C8 6.83611 8.42143 5.81869 9.17157 5.06855C9.92172 4.3184 10.9391 3.89697 12 3.89697C13.0609 3.89697 14.0783 4.3184 14.8284 5.06855C15.5786 5.81869 16 6.83611 16 7.89697V11.897" stroke="currentColor" stroke-width="1.5" stroke-linecap="round" stroke-linejoin="round"/>
</g>
<defs>
<clipPath id="clip0_718_85208">
<rect width="24" height="24" fill="white" transform="translate(0 0.896973)"/>
</clipPath>
</defs>
</svg>
